<svg width="24" height="25" viewBox="0 0 24 25" fill="none" xmlns="http://www.w3.org/2000/svg">
<path d="M7 7.82999H6C5.46957 7.82999 4.96086 8.0407 4.58579 8.41577C4.21071 8.79085 4 9.29955 4 9.82999V18.83C4 19.3604 4.21071 19.8691 4.58579 20.2442C4.96086 20.6193 5.46957 20.83 6 20.83H15C15.5304 20.83 16.0391 20.6193 16.4142 20.2442C16.7893 19.8691 17 19.3604 17 18.83V17.83" stroke="#9CD4F6" stroke-width="2" stroke-linecap="round" stroke-linejoin="round"/>
<path d="M20.385 7.41497C20.7788 7.02113 21.0001 6.48695 21.0001 5.92997C21.0001 5.37299 20.7788 4.83882 20.385 4.44497C19.9912 4.05113 19.457 3.82986 18.9 3.82986C18.343 3.82986 17.8088 4.05113 17.415 4.44497L9 12.83V15.83H12L20.385 7.41497Z" stroke="#9CD4F6" stroke-width="2" stroke-linecap="round" stroke-linejoin="round"/>
<path d="M16 5.82999L19 8.82999" stroke="#9CD4F6" stroke-width="2" stroke-linecap="round" stroke-linejoin="round"/>
</svg>
