<svg width="25" height="24" viewBox="0 0 25 24" fill="none" xmlns="http://www.w3.org/2000/svg">
<g clip-path="url(#clip0_343_2987)">
<path d="M21.2189 3.68571V3.43936C21.2189 2.67377 21.2155 1.90819 21.2189 1.14192C21.2229 0.481812 21.6857 0 22.3016 0C22.9175 0 23.3863 0.483166 23.3863 1.14259C23.3913 2.92057 23.3913 4.69855 23.3863 6.47653C23.3863 7.17611 22.9379 7.62594 22.2356 7.62798C20.4662 7.63342 18.6968 7.63342 16.9275 7.62798C16.247 7.62798 15.7665 7.15637 15.7706 6.52893C15.7747 5.90149 16.2613 5.45099 16.9418 5.45099C17.7924 5.45099 18.6431 5.45099 19.4937 5.45099H19.8184C19.5529 5.18626 19.342 4.95624 19.114 4.75141C16.9983 2.87316 14.53 1.99393 11.7045 2.22803C7.1511 2.60572 3.5382 5.96683 2.81685 10.4719C2.75021 10.9604 2.71181 11.4523 2.70184 11.9452C2.67326 12.604 2.22547 13.0735 1.59735 13.0681C0.96923 13.0626 0.508513 12.5849 0.518721 11.9221C0.552747 9.26259 1.34488 6.85014 2.96861 4.73916C4.98636 2.11507 7.65196 0.532848 10.9355 0.117729C14.76 -0.365442 18.0878 0.774432 20.8868 3.43392C20.9732 3.51626 21.0562 3.60133 21.1433 3.68299C21.1522 3.68775 21.1733 3.68163 21.2189 3.68571Z" fill="white"/>
<path d="M3.78342 20.286C3.78342 21.0924 3.78342 21.8981 3.78342 22.7045C3.78923 22.8488 3.77919 22.9932 3.75348 23.1353C3.69102 23.3851 3.54203 23.6048 3.33296 23.7551C3.1239 23.9055 2.8683 23.9769 2.61156 23.9567C2.05422 23.8968 1.62617 23.4803 1.62276 22.9359C1.61142 21.0817 1.61142 19.2273 1.62276 17.3726C1.62685 16.7602 2.11546 16.3369 2.77965 16.3348C4.13253 16.3301 5.48541 16.3348 6.83829 16.3348C7.25545 16.3348 7.67261 16.3294 8.08909 16.3348C8.76281 16.345 9.24598 16.8153 9.23509 17.4448C9.22556 18.0613 8.74035 18.5125 8.0782 18.5145C7.14248 18.5145 6.20677 18.5145 5.22001 18.5145C5.28806 18.5976 5.32549 18.6507 5.37312 18.7031C7.10097 20.4942 9.19562 21.532 11.6829 21.7382C14.1281 21.9507 16.5637 21.2344 18.5044 19.7319C20.4452 18.2294 21.7488 16.0509 22.1555 13.6304C22.2358 13.1014 22.2842 12.5681 22.3005 12.0332C22.3331 11.3691 22.7693 10.8975 23.3934 10.8975C24.0283 10.8975 24.5047 11.3793 24.4822 12.0543C24.3407 16.5077 22.4161 19.9899 18.5896 22.2683C14.944 24.4399 11.1133 24.529 7.26022 22.7447C6.05588 22.1788 4.96396 21.3995 4.03726 20.4445C3.978 20.3715 3.92646 20.2926 3.88346 20.2091L3.78342 20.286Z" fill="white"/>
</g>
<defs>
<clipPath id="clip0_343_2987">
<rect width="23.9633" height="24" fill="white" transform="translate(0.518555)"/>
</clipPath>
</defs>
</svg>
